<?xml version="1.0" encoding="utf-8"?>
<svg fill="#202020" viewBox="0 0 61.6 50" width="30.8px" height="25px" xmlns="http://www.w3.org/2000/svg">
  <path d="M 61.673 5.978 C 59.407 6.985 56.972 7.661 54.42 7.967 C 57.031 6.406 59.035 3.933 59.983 0.984 C 57.545 2.43 54.841 3.481 51.961 4.05 C 49.666 1.594 46.389 0.062 42.759 0.062 C 35.79 0.062 30.126 5.714 30.11 12.682 C 30.106 13.671 30.219 14.636 30.428 15.556 C 19.943 15.033 10.657 10.006 4.448 2.369 C 3.359 4.235 2.733 6.4 2.727 8.717 C 2.716 13.093 4.932 16.958 8.312 19.219 C 6.243 19.154 4.299 18.585 2.601 17.641 C 2.601 17.695 2.601 17.745 2.601 17.8 C 2.584 23.916 6.921 29.017 12.695 30.174 C 11.635 30.462 10.516 30.616 9.364 30.616 C 8.553 30.616 7.76 30.536 6.992 30.392 C 8.585 35.404 13.237 39.056 18.759 39.158 C 14.434 42.543 8.986 44.561 3.072 44.561 C 2.054 44.561 1.048 44.502 0.062 44.385 C 5.637 47.963 12.265 50.052 19.393 50.052 C 42.61 50.052 55.346 30.82 55.389 14.145 C 55.389 13.598 55.38 13.054 55.357 12.512 C 57.828 10.73 59.977 8.509 61.673 5.978 Z" style="" transform="matrix(0.999997, -0.0025, 0.0025, 0.999997, -0.062546, 0.077247)"/>
</svg>